<svg xmlns="http://www.w3.org/2000/svg" width="1000" height="650" viewBox="0 0 1000 650" role="img" aria-labelledby="title desc">
<title id="title">Opponent deck archetypes for Kaggle submission 54784364</title>
<desc id="desc">Pie chart of 37 matches grouped by inferred opponent deck archetype.</desc>
<rect width="100%" height="100%" fill="#ffffff"/>
<style>text{font-family:-apple-system,BlinkMacSystemFont,"Segoe UI",sans-serif;fill:#172033}.title{font-size:26px;font-weight:600}.sub{font-size:15px;fill:#64748b}.legend{font-size:16px}.value{font-weight:600}</style>
<text x="40" y="48" class="title">Opponent deck archetypes · 54784364</text>
<text x="40" y="76" class="sub">37 Kaggle matches · strongest Pokémon per reconstructed deck</text>
<path d="M 300 340 L 300.000 120.000 A 220 220 0 0 1 504.136 257.972 Z" fill="#2563eb" stroke="#ffffff" stroke-width="3"/>
<rect x="590" y="130" width="18" height="18" rx="4" fill="#2563eb"/>
<text x="622" y="145" class="legend">Alakazam</text>
<text x="940" y="145" text-anchor="end" class="legend value">18.9% <tspan fill="#64748b">(7)</tspan></text>
<path d="M 300 340 L 504.136 257.972 A 220 220 0 0 1 510.357 404.421 Z" fill="#16a34a" stroke="#ffffff" stroke-width="3"/>
<rect x="590" y="182" width="18" height="18" rx="4" fill="#16a34a"/>
<text x="622" y="197" class="legend">Mega Kangaskhan ex</text>
<text x="940" y="197" text-anchor="end" class="legend value">10.8% <tspan fill="#64748b">(4)</tspan></text>
<path d="M 300 340 L 510.357 404.421 A 220 220 0 0 1 423.194 522.272 Z" fill="#f59e0b" stroke="#ffffff" stroke-width="3"/>
<rect x="590" y="234" width="18" height="18" rx="4" fill="#f59e0b"/>
<text x="622" y="249" class="legend">Mega Lucario ex</text>
<text x="940" y="249" text-anchor="end" class="legend value">10.8% <tspan fill="#64748b">(4)</tspan></text>
<path d="M 300 340 L 423.194 522.272 A 220 220 0 0 1 281.343 559.207 Z" fill="#dc2626" stroke="#ffffff" stroke-width="3"/>
<rect x="590" y="286" width="18" height="18" rx="4" fill="#dc2626"/>
<text x="622" y="301" class="legend">Mega Starmie ex</text>
<text x="940" y="301" text-anchor="end" class="legend value">10.8% <tspan fill="#64748b">(4)</tspan></text>
<path d="M 300 340 L 281.343 559.207 A 220 220 0 0 1 176.806 522.272 Z" fill="#7c3aed" stroke="#ffffff" stroke-width="3"/>
<rect x="590" y="338" width="18" height="18" rx="4" fill="#7c3aed"/>
<text x="622" y="353" class="legend">Mega Abomasnow ex</text>
<text x="940" y="353" text-anchor="end" class="legend value">8.1% <tspan fill="#64748b">(3)</tspan></text>
<path d="M 300 340 L 176.806 522.272 A 220 220 0 0 1 123.121 470.819 Z" fill="#0891b2" stroke="#ffffff" stroke-width="3"/>
<rect x="590" y="390" width="18" height="18" rx="4" fill="#0891b2"/>
<text x="622" y="405" class="legend">Dudunsparce</text>
<text x="940" y="405" text-anchor="end" class="legend value">5.4% <tspan fill="#64748b">(2)</tspan></text>
<path d="M 300 340 L 123.121 470.819 A 220 220 0 0 1 89.643 404.421 Z" fill="#db2777" stroke="#ffffff" stroke-width="3"/>
<rect x="590" y="442" width="18" height="18" rx="4" fill="#db2777"/>
<text x="622" y="457" class="legend">Marnie&#x27;s Grimmsnarl ex</text>
<text x="940" y="457" text-anchor="end" class="legend value">5.4% <tspan fill="#64748b">(2)</tspan></text>
<path d="M 300 340 L 89.643 404.421 A 220 220 0 0 1 80.198 330.663 Z" fill="#65a30d" stroke="#ffffff" stroke-width="3"/>
<rect x="590" y="494" width="18" height="18" rx="4" fill="#65a30d"/>
<text x="622" y="509" class="legend">Mega Lopunny ex</text>
<text x="940" y="509" text-anchor="end" class="legend value">5.4% <tspan fill="#64748b">(2)</tspan></text>
<path d="M 300 340 L 80.198 330.663 A 220 220 0 0 1 300.000 120.000 Z" fill="#64748b" stroke="#ffffff" stroke-width="3"/>
<rect x="590" y="546" width="18" height="18" rx="4" fill="#64748b"/>
<text x="622" y="561" class="legend">Other</text>
<text x="940" y="561" text-anchor="end" class="legend value">24.3% <tspan fill="#64748b">(9)</tspan></text>
<circle cx="300" cy="340" r="92" fill="#ffffff"/>
<text x="300" y="336" text-anchor="middle" class="title">37</text>
<text x="300" y="365" text-anchor="middle" class="sub">matches</text>
</svg>
