<svg xmlns="http://www.w3.org/2000/svg" width="1000" height="650" viewBox="0 0 1000 650" role="img" aria-labelledby="title desc">
<title id="title">Opponent deck archetypes for Kaggle submission 54405445</title>
<desc id="desc">Pie chart of 42 matches grouped by inferred opponent deck archetype.</desc>
<rect width="100%" height="100%" fill="#ffffff"/>
<style>text{font-family:-apple-system,BlinkMacSystemFont,"Segoe UI",sans-serif;fill:#172033}.title{font-size:26px;font-weight:600}.sub{font-size:15px;fill:#64748b}.legend{font-size:16px}.value{font-weight:600}</style>
<text x="40" y="48" class="title">Opponent deck archetypes · 54405445</text>
<text x="40" y="76" class="sub">42 Kaggle matches · strongest Pokémon per reconstructed deck</text>
<path d="M 300 340 L 300.000 120.000 A 220 220 0 0 1 504.792 259.625 Z" fill="#2563eb" stroke="#ffffff" stroke-width="3"/>
<rect x="590" y="130" width="18" height="18" rx="4" fill="#2563eb"/>
<text x="622" y="145" class="legend">Mega Abomasnow ex</text>
<text x="940" y="145" text-anchor="end" class="legend value">19.0% <tspan fill="#64748b">(8)</tspan></text>
<path d="M 300 340 L 504.792 259.625 A 220 220 0 0 1 504.792 420.375 Z" fill="#16a34a" stroke="#ffffff" stroke-width="3"/>
<rect x="590" y="182" width="18" height="18" rx="4" fill="#16a34a"/>
<text x="622" y="197" class="legend">Dragapult ex</text>
<text x="940" y="197" text-anchor="end" class="legend value">11.9% <tspan fill="#64748b">(5)</tspan></text>
<path d="M 300 340 L 504.792 420.375 A 220 220 0 0 1 395.454 538.213 Z" fill="#f59e0b" stroke="#ffffff" stroke-width="3"/>
<rect x="590" y="234" width="18" height="18" rx="4" fill="#f59e0b"/>
<text x="622" y="249" class="legend">Mega Kangaskhan ex</text>
<text x="940" y="249" text-anchor="end" class="legend value">11.9% <tspan fill="#64748b">(5)</tspan></text>
<path d="M 300 340 L 395.454 538.213 A 220 220 0 0 1 235.154 550.226 Z" fill="#dc2626" stroke="#ffffff" stroke-width="3"/>
<rect x="590" y="286" width="18" height="18" rx="4" fill="#dc2626"/>
<text x="622" y="301" class="legend">Mega Lucario ex</text>
<text x="940" y="301" text-anchor="end" class="legend value">11.9% <tspan fill="#64748b">(5)</tspan></text>
<path d="M 300 340 L 235.154 550.226 A 220 220 0 0 1 127.997 477.168 Z" fill="#7c3aed" stroke="#ffffff" stroke-width="3"/>
<rect x="590" y="338" width="18" height="18" rx="4" fill="#7c3aed"/>
<text x="622" y="353" class="legend">Alakazam</text>
<text x="940" y="353" text-anchor="end" class="legend value">9.5% <tspan fill="#64748b">(4)</tspan></text>
<path d="M 300 340 L 127.997 477.168 A 220 220 0 0 1 85.516 388.955 Z" fill="#0891b2" stroke="#ffffff" stroke-width="3"/>
<rect x="590" y="390" width="18" height="18" rx="4" fill="#0891b2"/>
<text x="622" y="405" class="legend">Crustle</text>
<text x="940" y="405" text-anchor="end" class="legend value">7.1% <tspan fill="#64748b">(3)</tspan></text>
<path d="M 300 340 L 85.516 388.955 A 220 220 0 0 1 85.516 291.045 Z" fill="#db2777" stroke="#ffffff" stroke-width="3"/>
<rect x="590" y="442" width="18" height="18" rx="4" fill="#db2777"/>
<text x="622" y="457" class="legend">Mega Starmie ex</text>
<text x="940" y="457" text-anchor="end" class="legend value">7.1% <tspan fill="#64748b">(3)</tspan></text>
<path d="M 300 340 L 85.516 291.045 A 220 220 0 0 1 109.474 230.000 Z" fill="#65a30d" stroke="#ffffff" stroke-width="3"/>
<rect x="590" y="494" width="18" height="18" rx="4" fill="#65a30d"/>
<text x="622" y="509" class="legend">Archaludon ex</text>
<text x="940" y="509" text-anchor="end" class="legend value">4.8% <tspan fill="#64748b">(2)</tspan></text>
<path d="M 300 340 L 109.474 230.000 A 220 220 0 0 1 300.000 120.000 Z" fill="#64748b" stroke="#ffffff" stroke-width="3"/>
<rect x="590" y="546" width="18" height="18" rx="4" fill="#64748b"/>
<text x="622" y="561" class="legend">Other</text>
<text x="940" y="561" text-anchor="end" class="legend value">16.7% <tspan fill="#64748b">(7)</tspan></text>
<circle cx="300" cy="340" r="92" fill="#ffffff"/>
<text x="300" y="336" text-anchor="middle" class="title">42</text>
<text x="300" y="365" text-anchor="middle" class="sub">matches</text>
</svg>
