<svg xmlns="http://www.w3.org/2000/svg" width="1000" height="650" viewBox="0 0 1000 650" role="img" aria-labelledby="title desc">
<title id="title">Opponent Deck Archetypes (Peak Elo &gt;= 450)</title>
<desc id="desc">Pie chart of 352 matches grouped by inferred opponent deck archetype.</desc>
<rect width="100%" height="100%" fill="#ffffff"/>
<style>
text { font-family: -apple-system, BlinkMacSystemFont, "Segoe UI", Roboto, sans-serif; }
.hdr { font-size: 26px; font-weight: 700; fill: #0f172a; }
.subhdr { font-size: 15px; fill: #475569; }
.legend { font-size: 15px; fill: #1e293b; }
.legend.value { font-weight: 600; }
.title { font-size: 42px; font-weight: 800; fill: #0f172a; }
.sub { font-size: 14px; text-transform: uppercase; letter-spacing: 1px; fill: #64748b; }
</style>
<text x="50" y="55" class="hdr">Opponent Deck Archetypes (Peak Elo &gt;= 450)</text>
<text x="50" y="85" class="subhdr">352 Kaggle matches analyzed across 9 replay-backed models · local sample as of 2026-07-31</text>
<path d="M 300 340 L 300.000 120.000 A 220 220 0 0 1 473.738 205.036 Z" fill="#2563eb" stroke="#ffffff" stroke-width="2"/>
<rect x="590" y="130" width="18" height="18" rx="4" fill="#2563eb"/>
<text x="622" y="145" class="legend">Alakazam</text>
<text x="940" y="145" text-anchor="end" class="legend value">14.5% <tspan fill="#64748b">(51)</tspan></text>
<path d="M 300 340 L 473.738 205.036 A 220 220 0 0 1 514.972 386.764 Z" fill="#16a34a" stroke="#ffffff" stroke-width="2"/>
<rect x="590" y="182" width="18" height="18" rx="4" fill="#16a34a"/>
<text x="622" y="197" class="legend">Mega Lucario ex</text>
<text x="940" y="197" text-anchor="end" class="legend value">13.9% <tspan fill="#64748b">(49)</tspan></text>
<path d="M 300 340 L 514.972 386.764 A 220 220 0 0 1 434.964 513.738 Z" fill="#f59e0b" stroke="#ffffff" stroke-width="2"/>
<rect x="590" y="234" width="18" height="18" rx="4" fill="#f59e0b"/>
<text x="622" y="249" class="legend">Mega Abomasnow ex</text>
<text x="940" y="249" text-anchor="end" class="legend value">11.1% <tspan fill="#64748b">(39)</tspan></text>
<path d="M 300 340 L 434.964 513.738 A 220 220 0 0 1 300.000 560.000 Z" fill="#dc2626" stroke="#ffffff" stroke-width="2"/>
<rect x="590" y="286" width="18" height="18" rx="4" fill="#dc2626"/>
<text x="622" y="301" class="legend">Marnie&#x27;s Grimmsnarl ex</text>
<text x="940" y="301" text-anchor="end" class="legend value">10.5% <tspan fill="#64748b">(37)</tspan></text>
<path d="M 300 340 L 300.000 560.000 A 220 220 0 0 1 174.529 520.713 Z" fill="#7c3aed" stroke="#ffffff" stroke-width="2"/>
<rect x="590" y="338" width="18" height="18" rx="4" fill="#7c3aed"/>
<text x="622" y="353" class="legend">Dragapult ex</text>
<text x="940" y="353" text-anchor="end" class="legend value">9.7% <tspan fill="#64748b">(34)</tspan></text>
<path d="M 300 340 L 174.529 520.713 A 220 220 0 0 1 112.831 455.619 Z" fill="#0891b2" stroke="#ffffff" stroke-width="2"/>
<rect x="590" y="390" width="18" height="18" rx="4" fill="#0891b2"/>
<text x="622" y="405" class="legend">Mega Starmie ex</text>
<text x="940" y="405" text-anchor="end" class="legend value">6.5% <tspan fill="#64748b">(23)</tspan></text>
<path d="M 300 340 L 112.831 455.619 A 220 220 0 0 1 82.833 375.191 Z" fill="#db2777" stroke="#ffffff" stroke-width="2"/>
<rect x="590" y="442" width="18" height="18" rx="4" fill="#db2777"/>
<text x="622" y="457" class="legend">Mega Kangaskhan ex</text>
<text x="940" y="457" text-anchor="end" class="legend value">6.2% <tspan fill="#64748b">(22)</tspan></text>
<path d="M 300 340 L 82.833 375.191 A 220 220 0 0 1 81.715 312.583 Z" fill="#65a30d" stroke="#ffffff" stroke-width="2"/>
<rect x="590" y="494" width="18" height="18" rx="4" fill="#65a30d"/>
<text x="622" y="509" class="legend">Archaludon ex</text>
<text x="940" y="509" text-anchor="end" class="legend value">4.5% <tspan fill="#64748b">(16)</tspan></text>
<path d="M 300 340 L 81.715 312.583 A 220 220 0 0 1 300.000 120.000 Z" fill="#64748b" stroke="#ffffff" stroke-width="2"/>
<rect x="590" y="546" width="18" height="18" rx="4" fill="#64748b"/>
<text x="622" y="561" class="legend">Other</text>
<text x="940" y="561" text-anchor="end" class="legend value">23.0% <tspan fill="#64748b">(81)</tspan></text>
<circle cx="300" cy="340" r="92" fill="#ffffff"/>
<text x="300" y="336" text-anchor="middle" class="title">352</text>
<text x="300" y="365" text-anchor="middle" class="sub">matches</text>
</svg>
